<?xml version="1.0" encoding="UTF-8"?>
<svg id="_圖層_2" data-name="圖層 2" xmlns="http://www.w3.org/2000/svg" viewBox="0 0 284.14 80">
  <defs>
    <style>
      .cls-1 {
        fill: #fff;
      }

      .cls-2 {
        fill: #151414;
      }
    </style>
  </defs>
  <g id="logo">
    <g>
      <g>
        <g>
          <path class="cls-1" d="M40,1.14c21.46,0,38.86,17.4,38.86,38.86s-17.4,38.86-38.86,38.86"/>
          <path class="cls-2" d="M40,78.86C18.54,78.86,1.14,61.46,1.14,40S18.54,1.14,40,1.14"/>
          <path class="cls-2" d="M40,80C17.94,80,0,62.06,0,40S17.94,0,40,0s40,17.95,40,40-17.95,40-40,40ZM40,2.28C19.2,2.28,2.28,19.2,2.28,40s16.92,37.72,37.71,37.72,37.72-16.92,37.72-37.72S60.8,2.28,40,2.28Z"/>
        </g>
        <g>
          <path class="cls-2" d="M40,36.68c1.83,0,3.32,1.48,3.32,3.32s-1.48,3.32-3.32,3.32"/>
          <path class="cls-1" d="M40,43.32c-1.83,0-3.32-1.48-3.32-3.32s1.48-3.32,3.32-3.32"/>
        </g>
        <rect class="cls-2" x="47.93" y="35.74" width="11.37" height="8.53"/>
        <rect class="cls-1" x="20.69" y="35.74" width="11.37" height="8.53"/>
      </g>
      <g>
        <path class="cls-2" d="M115.2,57.97c-1.5,1.34-3.74,1.98-5.94,1.98-5.29,0-8.24-3-8.24-8.18v-17.01h-5.03v-3.21h5.03v-6.15h3.8v6.15h8.56v3.21h-8.56v16.79c0,3.32,1.71,5.13,4.87,5.13,1.55,0,3.1-.48,4.17-1.44l1.34,2.73Z"/>
        <path class="cls-2" d="M162.85,31.55l-10.64,28.13h-3.58l-8.88-23.05-8.88,23.05h-3.58l-10.59-28.13h3.64l8.82,23.91,9.04-23.91h3.26l8.98,23.91,8.93-23.91h3.48Z"/>
        <path class="cls-2" d="M167.71,22.67c0-1.44,1.23-2.67,2.78-2.67s2.78,1.18,2.78,2.62c0,1.55-1.18,2.78-2.78,2.78s-2.78-1.23-2.78-2.73ZM168.57,31.55h3.8v28.13h-3.8v-28.13Z"/>
        <path class="cls-2" d="M208.84,43.37v16.31h-3.8v-15.94c0-5.94-3.1-8.98-8.45-8.98-6.04,0-9.84,3.74-9.84,10.16v14.76h-3.8v-28.13h3.64v5.19c2.03-3.42,5.83-5.4,10.7-5.4,6.85,0,11.55,3.96,11.55,12.03Z"/>
        <path class="cls-2" d="M241.41,48.93c0,6.26-4.55,11.07-13.58,11.07-5.4,0-10.59-1.87-13.48-4.81l1.87-3.05c2.41,2.51,6.74,4.33,11.6,4.33,6.2,0,9.63-2.89,9.63-7.54s-3.16-7.43-10.11-7.43h-2.67v-2.83l10.38-13h-19.15v-3.42h24.07v2.73l-10.59,13.32c8.02.43,12.03,4.65,12.03,10.64Z"/>
        <path class="cls-2" d="M246.11,57.71c0-1.22.95-2.13,2.09-2.13s2.13.91,2.13,2.13-.98,2.16-2.13,2.16-2.09-.95-2.09-2.16Z"/>
        <path class="cls-2" d="M272.68,46.85v12.83h-2.68v-3.23c-1.26,2.13-3.7,3.42-7.13,3.42-4.68,0-7.56-2.44-7.56-6.02,0-3.19,2.05-5.87,7.99-5.87h6.57v-1.26c0-3.54-2.01-5.47-5.87-5.47-2.68,0-5.2.94-6.89,2.44l-1.26-2.09c2.09-1.77,5.16-2.8,8.42-2.8,5.35,0,8.39,2.68,8.39,8.03ZM269.89,53.46v-3.39h-6.5c-4.02,0-5.31,1.58-5.31,3.7,0,2.4,1.93,3.9,5.24,3.9s5.47-1.5,6.57-4.21Z"/>
        <path class="cls-2" d="M280.05,32.44c0-1.06.91-1.97,2.05-1.97s2.05.87,2.05,1.93c0,1.14-.87,2.05-2.05,2.05s-2.05-.91-2.05-2.01ZM280.68,38.97h2.8v20.71h-2.8v-20.71Z"/>
      </g>
    </g>
  </g>
</svg>